<?xml version="1.0" standalone="no"?>
<!DOCTYPE svg PUBLIC "-//W3C//DTD SVG 20010904//EN"
 "http://www.w3.org/TR/2001/REC-SVG-20010904/DTD/svg10.dtd">
<svg version="1.0" xmlns="http://www.w3.org/2000/svg"
 width="300.000000pt" height="300.000000pt" viewBox="0 0 300.000000 300.000000"
 preserveAspectRatio="xMidYMid meet">
<metadata>
Created by potrace 1.11, written by Peter Selinger 2001-2013
</metadata>
<g transform="translate(0.000000,300.000000) scale(0.100000,-0.100000)"
fill="#000000" stroke="none">
<path d="M0 1500 l0 -1500 1500 0 1500 0 0 1500 0 1500 -1500 0 -1500 0 0
-1500z m2152 873 l3 -167 298 -135 297 -135 0 -114 c0 -104 -2 -114 -17 -110
-10 3 -295 123 -634 267 -338 143 -622 261 -630 261 -9 0 -283 -113 -610 -251
-327 -138 -603 -254 -613 -257 -18 -5 -19 0 -13 123 4 71 10 132 14 136 11 10
1174 521 1198 526 11 2 103 -34 215 -85 l195 -88 3 98 3 98 144 0 145 0 2
-167z m-2 -1368 l0 -164 43 -19 c23 -10 158 -72 300 -137 l257 -118 0 -114 c0
-106 -1 -114 -18 -109 -10 4 -298 125 -641 270 l-622 264 -615 -259 c-338
-142 -618 -259 -621 -259 -9 0 5 252 15 262 10 10 1193 531 1207 531 6 0 95
-39 200 -86 104 -48 193 -87 197 -87 4 0 8 43 8 95 l0 95 145 0 145 0 0 -165z"/>
</g>
</svg>
